<?xml version="1.0" encoding="UTF-8"?>
<svg id="Ebene_2" data-name="Ebene 2" xmlns="http://www.w3.org/2000/svg" viewBox="0 0 679.11 237.01">
  <g id="Ebene_1-2" data-name="Ebene 1">
    <g>
      <path d="m0,184.74v-26.24h2.87v12.29l8.94-12.29h3.39l-8.28,11.56,8.87,14.69h-3.42l-7.32-12.26-2.17,3.09v9.16H0Z"/>
      <path d="m23.19,184.74v-19.32h2.83v1.69c.85-1.36,2.87-2.02,4.12-2.02,3.31,0,6.22,1.88,6.22,6v.37h-2.83v-.55c0-2.21-1.8-3.02-3.5-3.02-1.47,0-4.01,1.33-4.01,4.49v12.37h-2.83Z"/>
      <path d="m41.78,178.11v-6.07c0-4.23,2.95-6.96,7.25-6.96s7.25,2.65,7.25,6.96v3.9h-11.67v2.17c0,1.91.88,4.2,4.42,4.2,2.43,0,4.05-1.36,4.31-3.72h2.87c-.37,4.01-3.17,6.48-7.18,6.48-4.38,0-7.25-2.65-7.25-6.96Zm2.83-4.86h8.83v-1.21c0-1.91-.92-4.16-4.42-4.16-2.76,0-4.42,1.51-4.42,4.16v1.21Z"/>
      <path d="m62.02,178.89c0-3.61,2.76-5.6,6.29-5.6h5.23v-1.84c0-2.8-1.66-3.57-3.9-3.57-2.02,0-3.94.81-4.09,3.31h-2.8c.22-4.45,3.98-6.11,6.85-6.11,3.31,0,6.77,1.62,6.77,6.26v13.4h-2.83v-1.84c-.99,1.4-2.94,2.17-5.08,2.17-3.13,0-6.44-1.77-6.44-6.18Zm11.52-.74v-2.21h-5.15c-2.1,0-3.53.92-3.53,2.95,0,2.83,1.95,3.46,4.05,3.46,2.28,0,4.64-1.58,4.64-4.2Z"/>
      <path d="m85.47,179v-10.82h-3.68v-2.76h3.68v-6.55h2.83v6.55h7.03v2.76h-7.03v11c0,1.95,1.58,2.8,3.06,2.8s3.05-.85,3.05-2.8v-.88h2.83v.7c0,3.9-2.8,5.74-5.89,5.74s-5.89-1.84-5.89-5.74Z"/>
      <path d="m102.76,184.74v-2.76h5.63v-13.84h-5.67v-2.76h8.5v16.6h5.56v2.76h-14.02Zm5.23-22.53v-3.98h3.57v3.98h-3.57Z"/>
      <path d="m134.75,165.38h2.95l-5.52,19.36h-4.23l-5.52-19.36h2.94l4.67,16.67,4.71-16.67Z"/>
      <path d="m143.91,184.74v-2.83h5.82v-20.61h-5.82v-2.8h14.5v2.8h-5.81v20.61h5.81v2.83h-14.5Z"/>
      <path d="m165.23,184.74v-19.32h2.83v1.55c1.29-1.29,3.06-1.88,4.68-1.88,4.34,0,6.77,2.5,6.77,6.96v12.7h-2.83v-12.7c0-2.39-1.03-4.16-3.97-4.16-2.58,0-4.64,1.62-4.64,4.12v12.74h-2.83Z"/>
      <path d="m185.4,178.7h2.8c.15,2.36,1.8,3.61,4.38,3.61,2.13,0,4.38-.55,4.38-3.28,0-1.21-.88-1.88-2.17-2.28-1.62-.48-3.35-.85-4.82-1.21-2.39-.59-4.23-2.32-4.23-4.78,0-4.01,3.17-5.67,6.73-5.67,3.98,0,6.85,2.17,7.07,6.07h-2.87c-.15-2.1-1.58-3.28-4.27-3.28-1.91,0-3.83.52-3.83,2.83,0,.99.81,1.8,2.14,2.14,1.36.33,3.42.77,5.04,1.25,2.25.7,4.05,2.36,4.05,4.9,0,4.42-3.35,6.07-7.21,6.07-4.09,0-7.07-2.36-7.18-6.37Z"/>
      <path d="m208.77,179v-10.82h-3.68v-2.76h3.68v-6.55h2.83v6.55h7.03v2.76h-7.03v11c0,1.95,1.58,2.8,3.06,2.8s3.05-.85,3.05-2.8v-.88h2.83v.7c0,3.9-2.8,5.74-5.89,5.74s-5.89-1.84-5.89-5.74Z"/>
      <path d="m226.07,184.74v-2.76h5.63v-13.84h-5.67v-2.76h8.5v16.6h5.56v2.76h-14.02Zm5.23-22.53v-3.98h3.57v3.98h-3.57Z"/>
      <path d="m249.26,179v-10.82h-3.68v-2.76h3.68v-6.55h2.83v6.55h7.03v2.76h-7.03v11c0,1.95,1.58,2.8,3.06,2.8s3.05-.85,3.05-2.8v-.88h2.83v.7c0,3.9-2.8,5.74-5.89,5.74s-5.89-1.84-5.89-5.74Z"/>
      <path d="m266.33,178.11v-12.74h2.83v12.74c0,1.91.77,4.2,4.31,4.2,2.58,0,4.38-1.55,4.38-4.01v-12.92h2.83v19.36h-2.83v-1.58c-.99,1.25-2.65,1.91-4.38,1.91-4.38,0-7.14-2.65-7.14-6.96Z"/>
      <path d="m289.74,179v-10.82h-3.68v-2.76h3.68v-6.55h2.83v6.55h7.03v2.76h-7.03v11c0,1.95,1.58,2.8,3.06,2.8s3.05-.85,3.05-2.8v-.88h2.83v.7c0,3.9-2.8,5.74-5.89,5.74s-5.89-1.84-5.89-5.74Z"/>
      <path d="m308.33,184.74v-4.2h4.05v4.2h-4.05Z"/>
      <path d="m.18,222.21v-12.88c0-3.09,2.1-6.92,7.47-6.92s7.4,3.83,7.4,6.96v12.85c0,3.17-2.17,7.03-7.43,7.03s-7.44-3.9-7.44-7.03Zm12,0v-12.77c0-3.31-2.54-4.23-4.53-4.23s-4.6.92-4.6,4.23v12.77c0,3.31,2.54,4.2,4.6,4.2s4.53-.88,4.53-4.2Z"/>
      <path d="m21.61,222.87h2.8c.15,2.36,1.8,3.61,4.38,3.61,2.13,0,4.38-.55,4.38-3.28,0-1.21-.88-1.88-2.17-2.28-1.62-.48-3.35-.85-4.82-1.21-2.39-.59-4.23-2.32-4.23-4.78,0-4.01,3.17-5.67,6.74-5.67,3.97,0,6.85,2.17,7.07,6.07h-2.87c-.15-2.1-1.58-3.28-4.27-3.28-1.91,0-3.83.52-3.83,2.83,0,.99.81,1.8,2.14,2.14,1.36.33,3.42.77,5.04,1.25,2.25.7,4.05,2.36,4.05,4.9,0,4.42-3.35,6.07-7.21,6.07-4.09,0-7.07-2.36-7.18-6.37Z"/>
      <path d="m44.98,223.17v-10.82h-3.68v-2.76h3.68v-6.55h2.83v6.55h7.03v2.76h-7.03v11c0,1.95,1.58,2.8,3.06,2.8s3.05-.85,3.05-2.8v-.88h2.83v.7c0,3.9-2.8,5.74-5.89,5.74s-5.89-1.84-5.89-5.74Z"/>
      <path d="m65.04,228.91l-3.72-19.36h2.95l2.65,15.05,3.02-11.45h2.32l3.06,11.48,2.61-15.09h2.94l-3.68,19.36h-3.28l-2.8-10.71-2.87,10.71h-3.2Z"/>
      <path d="m85.94,222.28v-6.07c0-4.23,2.95-6.96,7.25-6.96s7.25,2.65,7.25,6.96v3.9h-11.67v2.17c0,1.91.88,4.2,4.42,4.2,2.43,0,4.05-1.36,4.31-3.72h2.87c-.37,4.01-3.17,6.48-7.18,6.48-4.38,0-7.25-2.65-7.25-6.96Zm2.83-4.86h8.83v-1.21c0-1.91-.92-4.16-4.42-4.16-2.76,0-4.42,1.51-4.42,4.16v1.21Z"/>
      <path d="m106.26,222.87h2.8c.15,2.36,1.8,3.61,4.38,3.61,2.13,0,4.38-.55,4.38-3.28,0-1.21-.88-1.88-2.17-2.28-1.62-.48-3.35-.85-4.82-1.21-2.39-.59-4.23-2.32-4.23-4.78,0-4.01,3.17-5.67,6.74-5.67,3.97,0,6.85,2.17,7.07,6.07h-2.87c-.15-2.1-1.58-3.28-4.27-3.28-1.91,0-3.83.52-3.83,2.83,0,.99.81,1.8,2.14,2.14,1.36.33,3.42.77,5.04,1.25,2.25.7,4.05,2.36,4.05,4.9,0,4.42-3.35,6.07-7.21,6.07-4.09,0-7.07-2.36-7.18-6.37Z"/>
      <path d="m129.63,223.17v-10.82h-3.68v-2.76h3.68v-6.55h2.83v6.55h7.03v2.76h-7.03v11c0,1.95,1.58,2.8,3.06,2.8s3.05-.85,3.05-2.8v-.88h2.83v.7c0,3.9-2.8,5.74-5.89,5.74s-5.89-1.84-5.89-5.74Z"/>
      <path d="m150.25,228.91v-13.99h-3.68v-2.76h3.68v-3.98c0-3.94,2.83-5.74,5.89-5.74s5.89,1.8,5.89,5.74v.55h-2.83v-.77c0-1.95-1.58-2.76-3.05-2.76s-3.06.81-3.06,2.83v4.12h5.59v2.76h-5.59v13.99h-2.83Z"/>
      <path d="m166.92,223.06c0-3.61,2.76-5.6,6.29-5.6h5.23v-1.84c0-2.8-1.66-3.57-3.9-3.57-2.02,0-3.94.81-4.09,3.31h-2.8c.22-4.45,3.98-6.11,6.85-6.11,3.31,0,6.77,1.62,6.77,6.26v13.4h-2.83v-1.84c-.99,1.4-2.94,2.17-5.08,2.17-3.13,0-6.44-1.77-6.44-6.18Zm11.52-.74v-2.21h-5.15c-2.1,0-3.53.92-3.53,2.95,0,2.83,1.95,3.46,4.05,3.46,2.28,0,4.64-1.58,4.64-4.2Z"/>
      <path d="m187.42,228.91v-2.76h5.63v-20.72h-5.37v-2.76h8.21v23.48h5.56v2.76h-14.02Z"/>
      <path d="m207.41,222.28v-6.07c0-4.23,2.95-6.96,7.25-6.96s7.25,2.65,7.25,6.96v3.9h-11.67v2.17c0,1.91.88,4.2,4.42,4.2,2.43,0,4.05-1.36,4.31-3.72h2.87c-.37,4.01-3.17,6.48-7.18,6.48-4.38,0-7.25-2.65-7.25-6.96Zm2.83-4.86h8.83v-1.21c0-1.91-.92-4.16-4.42-4.16-2.76,0-4.42,1.51-4.42,4.16v1.21Z"/>
      <path d="m227.8,228.91v-19.32h2.83v1.55c1.29-1.29,3.06-1.88,4.68-1.88,4.34,0,6.77,2.5,6.77,6.96v12.7h-2.83v-12.7c0-2.39-1.03-4.16-3.97-4.16-2.58,0-4.64,1.62-4.64,4.12v12.74h-2.83Z"/>
      <path d="m250.62,219.89v-2.69h10.93v2.69h-10.93Z"/>
      <path d="m271.05,228.91v-26.24h2.87v23.41h11.3v2.83h-14.17Z"/>
      <path d="m292.32,228.91v-2.76h5.63v-13.84h-5.67v-2.76h8.5v16.6h5.56v2.76h-14.02Zm5.23-22.53v-3.98h3.57v3.98h-3.57Z"/>
      <path d="m312.38,237.01v-27.42h2.83v1.51c.85-1.14,2.65-1.84,4.34-1.84,4.31,0,7.18,2.76,7.18,6.99v6.07c0,4.31-2.8,6.92-7.18,6.92-1.73,0-3.53-.7-4.34-1.88v9.64h-2.83Zm11.52-14.69v-6.07c0-2.65-1.62-4.2-4.34-4.2-3.53,0-4.34,2.28-4.34,4.2v6.07c0,2.65,1.66,4.16,4.34,4.16,3.53,0,4.34-2.28,4.34-4.16Z"/>
      <path d="m332.62,237.01v-27.42h2.83v1.51c.85-1.14,2.65-1.84,4.34-1.84,4.31,0,7.18,2.76,7.18,6.99v6.07c0,4.31-2.8,6.92-7.18,6.92-1.73,0-3.53-.7-4.34-1.88v9.64h-2.83Zm11.52-14.69v-6.07c0-2.65-1.62-4.2-4.34-4.2-3.53,0-4.34,2.28-4.34,4.2v6.07c0,2.65,1.66,4.16,4.34,4.16,3.53,0,4.34-2.28,4.34-4.16Z"/>
      <path d="m352.79,222.28v-6.07c0-4.23,2.95-6.96,7.25-6.96s7.25,2.65,7.25,6.96v3.9h-11.67v2.17c0,1.91.88,4.2,4.42,4.2,2.43,0,4.05-1.36,4.31-3.72h2.87c-.37,4.01-3.17,6.48-7.18,6.48-4.38,0-7.25-2.65-7.25-6.96Zm2.83-4.86h8.83v-1.21c0-1.91-.92-4.16-4.42-4.16-2.76,0-4.42,1.51-4.42,4.16v1.21Z"/>
    </g>
    <g>
      <g>
        <path d="m602.8,12.66c-41.97.1-76.04,34.33-75.94,76.3.1,41.97,34.33,76.04,76.3,75.94,41.97-.1,76.04-34.33,75.94-76.3-.1-41.97-34.33-76.04-76.3-75.94Zm.26,109.96c-18.66.04-33.88-15.1-33.92-33.76-.04-18.66,15.1-33.88,33.76-33.92,18.66-.04,33.88,15.1,33.92,33.76.04,18.66-15.1,33.88-33.76,33.92Z"/>
        <path d="m409.98,20.03c-7.62-8.85-20.97-9.85-29.82-2.23l-63.84,54.96c-4.66,4.02-7.35,9.87-7.35,16.02s2.68,12.01,7.35,16.02l63.84,54.96c3.99,3.44,8.9,5.12,13.78,5.12,5.94,0,11.85-2.49,16.03-7.35,7.62-8.85,6.62-22.2-2.23-29.82l-45.23-38.94,45.23-38.94c8.85-7.62,9.85-20.97,2.23-29.82Z"/>
        <path d="m472.89,164.89c-12.57,0-22.77-10.19-22.77-22.77v-49.71c0-12.57,10.19-22.77,22.77-22.77s22.77,10.19,22.77,22.77v49.71c0,12.57-10.19,22.77-22.77,22.77Z"/>
        <path d="m263.48,107.36c-12.57,0-22.77-10.19-22.77-22.77v-49.71c0-12.57,10.19-22.77,22.77-22.77s22.77,10.19,22.77,22.77v49.71c0,12.57-10.19,22.77-22.77,22.77Z"/>
      </g>
      <g>
        <path d="m474.22,85.18c0-4.19-6.5-4.19-6.51,0-.04,25.61.84,51.16,2.6,76.71.55,7.96,1.14,15.92,1.74,23.88.13,1.75,1.4,3.25,3.25,3.25,1.66,0,3.38-1.49,3.25-3.25-1.91-25.53-3.7-51.05-4.16-76.65-.14-7.98-.19-15.96-.18-23.94Z" fill="#55fc27"/>
        <path d="m484.91,30.19c-2.18.87-4.34,1.79-6.49,2.74,1.19-1.16,1.14-3.4-.07-4.52-1.36-1.25-3.24-1.21-4.6,0-1.25,1.11-2.41,2.3-3.53,3.52-.27-1.29-.54-2.57-.81-3.86-.35-1.67-2.4-2.79-4-2.27-1.76.57-2.65,2.21-2.27,4,.28,1.33.56,2.66.83,3.98-1.61-.82-3.2-1.66-4.77-2.56-1.47-.85-3.63-.39-4.45,1.17-.82,1.55-.41,3.54,1.17,4.45,2.36,1.36,4.78,2.59,7.24,3.75-.38.21-.77.41-1.15.63-1.52.88-2.05,2.94-1.17,4.45.1.17.22.32.34.47-.45,1.09-.88,2.18-1.25,3.3-.54,1.61.62,3.63,2.27,4,1.8.41,3.42-.54,4-2.27.31-.91.64-1.82,1-2.71.02-.06.05-.12.07-.18.04-.1.09-.2.13-.3.83.85,2.14,1.28,3.24.93,1.76-.57,2.65-2.21,2.27-4-.02-.11-.05-.21-.07-.32.5.18,1,.38,1.5.55,1.61.54,3.63-.62,4-2.27.22-.96.04-1.87-.43-2.6,2.87-1.35,5.77-2.64,8.7-3.81,1.63-.65,2.77-2.17,2.27-4-.43-1.55-2.36-2.93-4-2.27Z" fill="#55fc27"/>
        <path d="m430.11,149.64c-22.53-9.15-44.97-18.5-67.41-27.85-24.36-10.15-48.7-20.34-73.07-30.44-8.03-3.33-16.07-6.64-24.12-9.93-.04-.63-.1-1.25-.14-1.88,15.91-3.98,31.72-8.34,47.41-13.1,18.5-5.61,36.83-11.77,54.95-18.48,9.83-3.64,19.61-7.45,29.31-11.43,1.5-.61,2.56-1.99,2.1-3.69-.39-1.42-2.18-2.71-3.69-2.1-17.46,7.15-35.14,13.76-53,19.85-18.7,6.37-37.59,12.16-56.64,17.39-6.94,1.9-13.91,3.72-20.89,5.48-1.05-13.7-2.37-27.39-4.05-41.03-1.24-10.1-2.66-20.18-4.23-30.24-.25-1.6-2.26-2.49-3.69-2.1-1.71.47-2.35,2.08-2.1,3.69,2.64,16.93,4.83,33.94,6.47,51,.65,6.71,1.2,13.42,1.7,20.14-2.3.56-4.59,1.12-6.89,1.67-1.27.3-2.2,1.61-2.2,2.89,0,1.42.96,2.39,2.2,2.89,2.55,1.03,5.09,2.08,7.64,3.12.4,6.1.78,12.21,1.11,18.31.54,9.98,1.01,19.95,1.46,29.93.07,1.62,1.33,3,3,3,1.57,0,3.07-1.37,3-3-.69-15.25-1.43-30.5-2.41-45.73,17.9,7.34,35.76,14.77,53.61,22.21,24.36,10.15,48.7,20.34,73.08,30.44,11.95,4.95,23.91,9.88,35.9,14.75,1.5.61,3.3-.66,3.69-2.1.47-1.72-.59-3.08-2.1-3.69Z" fill="#55fc27"/>
        <path d="m653.05,73.51c-.65-5.09-1.69-9.86-3.8-14.56-2.13-4.74-5.19-9.1-8.83-12.8-7.96-8.1-18.73-12.65-30.07-12.92-24.73-.59-45.05,17.01-56.9,37.3-3.18,5.45-5.88,11.41-6.93,17.67-1.08,6.46-.33,12.74,2.25,18.75,2.4,5.6,6.11,10.55,10.05,15.16,3.77,4.41,7.98,8.42,12.64,11.88,9.2,6.85,20.41,10.75,31.93,9.25,11.99-1.56,22.63-7.92,32.26-14.9,2.4-1.74,4.77-3.54,7.12-5.35,7.45-5.14,9.94-14.32,10.95-22.85,1.04-8.83.46-17.84-.66-26.63Zm-4.85,19.44c-.05,2.19-.18,4.37-.42,6.55-.18,1.65-.48,3.58-.94,5.59-1.07,4.64-2.77,8.75-6.31,12.01-4.11,3.78-9.02,7.06-13.66,10.12-4.88,3.22-10.03,6.07-15.56,8-5.08,1.77-10.34,2.68-15.73,2.29-4.8-.35-9.61-1.9-13.92-4.15-9.18-4.8-16.96-12.53-22.89-20.95-3.15-4.47-5.89-9.51-6.61-15.01-.73-5.62.6-11.33,2.76-16.51,2.14-5.14,5.14-9.96,8.36-14.49,3.04-4.27,6.48-8.27,10.3-11.86,7.95-7.48,17.68-12.9,28.5-14.73,10.22-1.73,20.65.33,29.05,6.27,7.46,5.27,12.98,13.46,15.06,22.39.27,1.14.47,2.3.64,3.46.02.17.05.35.07.52,0,.05.01.08.02.13.07.5.13,1,.19,1.51.24,1.96.45,3.93.62,5.91.37,4.31.56,8.65.45,12.98Z" fill="#55fc27"/>
      </g>
    </g>
  </g>
</svg>